<mxfile host="app.diagrams.net" modified="2023-12-17T17:19:25.621Z" agent="Mozilla/5.0 (X11; Linux x86_64) AppleWebKit/537.36 (KHTML, like Gecko) Chrome/120.0.0.0 Safari/537.36" version="22.1.11" etag="8P3LuOBigfzGxZHndc9-" type="github">
  <diagram name="Page-1" id="91qA87hdiszA3aOv8GyX">
    <mxGraphModel>
      <root>
        <mxCell id="0" />
        <mxCell id="1" parent="0" />
      </root>
    </mxGraphModel>
  </diagram>
</mxfile>
